<svg xmlns="http://www.w3.org/2000/svg" x="0px" y="0px" viewBox="0 0 100 100" style="enable-background:new 0 0 100 100;" xml:space="preserve"><g>			<path d="M91.7,7.2H8.3c-3.7,0-6.7,3-6.7,6.7v69.3c0,3.7,3,6.7,6.7,6.7h83.5c3.7,0,6.7-3,6.7-6.7V13.9C98.4,10.2,95.5,7.2,91.7,7.2   z M8.3,12.4h83.5c0.8,0,1.5,0.7,1.5,1.5v11.9H6.8V13.9C6.8,13.1,7.5,12.4,8.3,12.4z M91.7,84.6H8.3c-0.8,0-1.5-0.7-1.5-1.5V31   h86.5v52.1C93.2,83.9,92.5,84.6,91.7,84.6z"></path>	<path d="M32.5,53.4c0.5,0.5,1.1,0.7,1.8,0.7c0.7,0,1.3-0.2,1.8-0.7l2.9-2.9l2.9,2.9c0.5,0.5,1.1,0.7,1.8,0.7   c0.7,0,1.3-0.2,1.8-0.7c1-1,1-2.7,0-3.7l-2.9-2.9l2.9-2.9c1-1,1-2.7,0-3.7c-1-1-2.7-1-3.7,0L39,43.2l-2.9-2.9c-1-1-2.7-1-3.7,0   c-1,1-1,2.7,0,3.7l2.9,2.9l-2.9,2.9C31.4,50.7,31.4,52.4,32.5,53.4z"></path>	<path d="M67.5,40.4c-1-1-2.7-1-3.7,0L61,43.3l-2.9-2.9c-1-1-2.7-1-3.7,0c-1,1-1,2.7,0,3.7l2.9,2.9l-2.9,2.9c-1,1-1,2.7,0,3.7   c0.5,0.5,1.1,0.7,1.8,0.7s1.3-0.2,1.8-0.7l2.9-2.9l2.9,2.9c0.5,0.5,1.1,0.7,1.8,0.7s1.3-0.2,1.8-0.7c1-1,1-2.7,0-3.7L64.7,47   l2.9-2.9C68.6,43.1,68.6,41.5,67.5,40.4z"></path>	<path d="M65.2,61.1H34.8c-1.4,0-2.5,1.1-2.5,2.5c0,1.4,1.1,2.5,2.5,2.5h14.4v5.2c0,3.8,3.1,6.7,6.7,6.7c3.7,0,6.7-3.1,6.7-6.7   v-5.2h2.4c1.4,0,2.5-1.1,2.5-2.5C67.7,62.3,66.6,61.1,65.2,61.1z M57.5,71.6c0,0.9-0.7,1.6-1.6,1.6c-0.9,0-1.6-0.7-1.6-1.6v-5.2   h3.2v5.2H57.5z"></path>	</g></svg>