<svg xmlns="http://www.w3.org/2000/svg" viewBox="0 0 50 50"><path d="M12.9,25.19a.78.78,0,0,0,0-.72v0c.05,0,.12,0,.24-.06s0,.23,0,.33a2.33,2.33,0,0,0,.16.8.58.58,0,0,0,.34.28.73.73,0,0,0-.11.68.41.41,0,0,0,.29.25,2.51,2.51,0,0,0,.79.18.7.7,0,0,0,.43-.14l.05.06a1,1,0,0,0,.59.35l.24,0a.88.88,0,0,0,.87-.77c0-.08.06-.19.06-.2h.53c.78,0,1.21-.46,1.31-1.43a1.79,1.79,0,0,0-.27-1.38.66.66,0,0,0-.26-.18.8.8,0,0,0,.09-.67c-.14-.43-.29-.88-.68-.88a.57.57,0,0,0,.1-.26,1.94,1.94,0,0,0-.21-1.3.46.46,0,0,0-.44-.27l-.22,0a.77.77,0,0,1-.17-.13,1.35,1.35,0,0,0-.61-.31h-.13a1.25,1.25,0,0,0-.47.11,1.11,1.11,0,0,1-.26.07L15,19.55a1.09,1.09,0,0,0-.5-.15.69.69,0,0,0-.33.08,1.42,1.42,0,0,0-.46.49l-.08.13,0,0a.42.42,0,0,0-.32-.16,1.25,1.25,0,0,0-1.21,1,1.32,1.32,0,0,1-.3.52l-.27,0A3.26,3.26,0,0,0,11,21.3a.57.57,0,0,0-.48.21.53.53,0,0,0-.07.35.59.59,0,0,0,.18.35l-1,.25a.37.37,0,0,0-.31.15.63.63,0,0,0,0,.68c.22.47,1.54,2.35,2.46,2.35h0C12.41,25.58,12.74,25.45,12.9,25.19Z"></path><path d="M40.34,37.68A4.66,4.66,0,0,0,37,36.11l-.28,0a.7.7,0,0,0-.74.58.69.69,0,0,1-.22.38l-.11-.1-.06-.11a1,1,0,0,0-.28-.4l0,0,.09,0a1.25,1.25,0,0,0,.84-.41c.79-.83,0-2.06-.48-2.73a.46.46,0,0,0,.28-.17.69.69,0,0,0,0-.63,4.7,4.7,0,0,0-.37-.81,2.68,2.68,0,0,1-.44-1.2l.07,0a.69.69,0,0,0,.46-.61.88.88,0,0,0-.72-1,.25.25,0,0,1-.15-.1,1.25,1.25,0,0,1-.09-.39,1.41,1.41,0,0,0-.28-.8c-.5-.62-.64-.71-1-.83a3.63,3.63,0,0,1-.5-.25l-.11-.1a1,1,0,0,0-.44-.28h0c-.2-1-.43-3.33-.47-4a4.47,4.47,0,0,1,0-.74.37.37,0,0,0,0-.09.58.58,0,0,0,0-.52,1.14,1.14,0,0,0-.41-.31l-.16-.09a2.79,2.79,0,0,1-.27-.67,2,2,0,0,0-.47-1,18.85,18.85,0,0,0-1.58-1.16c.23,0,.62-.15.71-.8.06-.41-.29-.64-.48-.76l-.09-.05s0,0,0,0c.89-.19,2.69-3,2.92-3.36a.46.46,0,0,0,.07-.37,1.08,1.08,0,0,1,.14-.38l1-1a.37.37,0,0,0,.09-.16,1.7,1.7,0,0,0-.05-1.06c-.37-.81-1.76-1-2.87-1.1a5.07,5.07,0,0,1-.87-.14,1.15,1.15,0,0,1-.29-.15,1.4,1.4,0,0,0-.59-.28,2.31,2.31,0,0,0-1.3.25l-.28.12a2.68,2.68,0,0,0,.18-.2s0-.06,0,0l.13-.09c.22-.13.47-.29.46-.58a.53.53,0,0,0-.19-.34h0l-.13-.08.51-.33c1.92-1.23,2.12-1.39,2.21-1.62a1.36,1.36,0,0,0,.07-.5.88.88,0,0,0,0-.21s.12-.1.17-.15a.83.83,0,0,0,.39-.58A.48.48,0,0,0,31,3.08a.68.68,0,0,0-.56-.25,1.85,1.85,0,0,0-.42.06,1.66,1.66,0,0,1-.28,0l-.3,0a9.65,9.65,0,0,0-2.79-.16h0a.58.58,0,0,0-.42-.44H26a3.15,3.15,0,0,0-.77-.47A.39.39,0,0,0,24.7,2a1.33,1.33,0,0,1-.14.19,1.44,1.44,0,0,0-.37.67.35.35,0,0,0,0,.13.55.55,0,0,0-.31.19.71.71,0,0,0-.06.65.57.57,0,0,0-.32-.16.42.42,0,0,0-.4.37,1.1,1.1,0,0,0,.09.55.52.52,0,0,0-.57.41,1.11,1.11,0,0,0,0,.38.6.6,0,0,0-.22,0,.58.58,0,0,0-.35.15.51.51,0,0,0-.09.13.49.49,0,0,0-.25-.07.73.73,0,0,0-.2,0,.84.84,0,0,0-.54.59c-.15.6.36,1.33.82,1.89l0,0a1.25,1.25,0,0,1,0,.29,1.48,1.48,0,0,0,0,.21,2.87,2.87,0,0,0,0,.39,1.77,1.77,0,0,1,0,.33l-.16,0-.28,0a.61.61,0,0,0-.61.36.4.4,0,0,0,.18.51,2.67,2.67,0,0,1,.41.28h0a.69.69,0,0,1-.21-.09,1.21,1.21,0,0,0-.72-.13,1,1,0,0,0-.79.55.73.73,0,0,0,.11.63,1.16,1.16,0,0,0-1.13.26.56.56,0,0,0-.07.47c-.28.12-.45.27-.44.53s.37.43.6.48l.23.05-.26.34a.83.83,0,0,0-.77,0h0a.52.52,0,0,0-.24.75,1,1,0,0,0,.94.44,4.12,4.12,0,0,0,1.42-.33A2.78,2.78,0,0,0,20,15a2.69,2.69,0,0,1-.05.58,1.56,1.56,0,0,1-.3.19c-.26.13-.53.27-.56.57a.49.49,0,0,0,.17.42.41.41,0,0,0-.06.45.48.48,0,0,0,.14.2l-.28.25a.12.12,0,0,0-.06.06,1.74,1.74,0,0,0-.29.78,1.14,1.14,0,0,1-.16.48s-.11.11-.17.17-.45.4-.41.7a.5.5,0,0,0,.31.39,1.59,1.59,0,0,0,1.34-.18.46.46,0,0,0,.23-.3.45.45,0,0,0-.08-.35l.14-.16a1.93,1.93,0,0,0,.36-.52.59.59,0,0,0,0-.43.43.43,0,0,0,0-.11s0,0,0-.05l.1,0a.67.67,0,0,0,.56-.47,1.51,1.51,0,0,0-.14-.85c0-.11-.1-.28-.11-.29a13.28,13.28,0,0,1,1.16-.66l0,.17a1.94,1.94,0,0,0-.05.68.77.77,0,0,0-.1.18,1.85,1.85,0,0,0-.09.67,1.14,1.14,0,0,1,0,.27.49.49,0,0,0-.26.66l.13.18a4.47,4.47,0,0,1,.5.8h0a1,1,0,0,0-.36.2c-.56.5-.74.67-.63,1l0,.05,0,0a2.41,2.41,0,0,1-.3.32,1.48,1.48,0,0,0-.52,1.23c-.22,0-.56,0-.64.34,0,.15,0,.36.28.55a2,2,0,0,0,1,.35.66.66,0,0,0,.29-.06l.25.31c0,.06.08.15.13.24.16.33.32.67.67.67a.48.48,0,0,0,.42-.24,1.29,1.29,0,0,0,.16-.39.91.91,0,0,0,.11.16.66.66,0,0,0,.35.18.69.69,0,0,0,.59,0,1.18,1.18,0,0,0,.37-.24l.16-.12.14,0a1.25,1.25,0,0,0,.44,0c-.89,1-.85,1.39-.84,1.54a.35.35,0,0,0,0,.14l.47,1a.94.94,0,0,1,0,.09,1,1,0,0,0,0,.74.78.78,0,0,0,.48.37L25,28a.74.74,0,0,0,.07.65.64.64,0,0,0,.46.2.86.86,0,0,0,.23-.05.4.4,0,0,0,0,.11.71.71,0,0,0-.73.27.93.93,0,0,0,0,.89.72.72,0,0,0,.23.31,1.46,1.46,0,0,0-.63.85,2,2,0,0,0,0,.43.49.49,0,0,0-.32.26.89.89,0,0,0-.82,0,.61.61,0,0,1-.35.09.7.7,0,0,1-.18-.13,1.07,1.07,0,0,0-.51-.28.48.48,0,0,0-.5.17.49.49,0,0,0-.06.22,1.3,1.3,0,0,1-.4,0l-.27,0h-.1l-.31-.59a.39.39,0,0,0-.31-.72c-.41.13-.71.28-.83.56a.9.9,0,0,0,.15.77,2.06,2.06,0,0,1,.2.42.45.45,0,0,0-.05.45.27.27,0,0,0,.08.07s0,.06,0,.08,0,0,0,0a3.65,3.65,0,0,1-.64.28c-.36.13-.92.32-.78.8.05.27.17,1,.73,1a1.21,1.21,0,0,0,.76-.43,2.07,2.07,0,0,1,.37-.31l.07.06a5.77,5.77,0,0,1,.27,1.67,5,5,0,0,1-2,1.68l-.13-.06a1.17,1.17,0,0,0-.51-.11.84.84,0,0,0-.61.46s-.06.09,0,.09l-.25,0a5.7,5.7,0,0,0-.62,0c-1.09,0-1.21.64-1.21.92a1.41,1.41,0,0,1,0,.2,1.36,1.36,0,0,0,.18.93.58.58,0,0,0,.29.2.57.57,0,0,0,.06.25,1.2,1.2,0,0,0,.73.54,1.73,1.73,0,0,0,1.1-.08A.34.34,0,0,0,18,41a.64.64,0,0,0,.15-.28,2.12,2.12,0,0,1,.29-.06.51.51,0,0,0,.22.11c.1,1,.12,1.16.37,1.28a1.23,1.23,0,0,0,1-.13c.09,0,.26-.13.25-.15a1.26,1.26,0,0,1,.23.52,1.62,1.62,0,0,0,.58.95c1,.54,1.44.23,1.76-.06a1.39,1.39,0,0,1,.35-.26c-.21.14-.24.18-.27.26a1.45,1.45,0,0,0-.13.47,1.09,1.09,0,0,1-.06.29c-.33.25-.83,0-1.35-.27a3.83,3.83,0,0,0-1-.41,5.13,5.13,0,0,0-.81-.08c-1.07,0-1.25.61-1.34.93,0,0,0,.1,0,.12l-.05,0a.78.78,0,0,0-.54-.29.58.58,0,0,0-.18,0c-.4.16-.46.68-.52,1.13,0,.11,0,.28,0,.25a.81.81,0,0,1-.3.18,1.68,1.68,0,0,0-.42.26.52.52,0,0,0-.2.22.66.66,0,0,0-.49.08,1.67,1.67,0,0,0-.46.55c-.05.07-.09.15-.14.21a.58.58,0,0,0-.42.09.51.51,0,0,0-.21.39,1.43,1.43,0,0,1-.18.18c-.58,0-2.07.08-2.07.78s.62.67.93.71a1.23,1.23,0,0,1,.42.11,1.17,1.17,0,0,1,0,.22c0,.22.08.68.52.75H14c.38,0,.76-.66,1-1.3l.12,0a1.09,1.09,0,0,0,.76,0,.71.71,0,0,0,.34-.5,2.43,2.43,0,0,1,.91.27,3.8,3.8,0,0,0,.61.22.81.81,0,0,0,.37,0l0,0c.52.51,1.09,1.12,1.72.85s1.09-1.7,1.27-2.38l.34,0a3.36,3.36,0,0,1,2,.66,1.91,1.91,0,0,1,.35.32l0,.09a.49.49,0,0,0,.05.46.39.39,0,0,0,.32.16h0a.51.51,0,0,0,.3-.13l.06-.08a1.15,1.15,0,0,0,.13-.44.09.09,0,0,0,0,0,6.19,6.19,0,0,1,.59.33l.13.08a.61.61,0,0,0,.26.08.83.83,0,0,0,.3.07.48.48,0,0,0,.46-.38.75.75,0,0,0-.06-.4h.14a9.84,9.84,0,0,0,1.28.12,1.09,1.09,0,0,0,.77-.22,1.41,1.41,0,0,0,.32.17l.17,0,.05,0,.12,0a.68.68,0,0,0,.38.18,1.36,1.36,0,0,0,.79.19,10.45,10.45,0,0,0,1.36-.14l.49-.07a2.88,2.88,0,0,1,.51.31,1.94,1.94,0,0,0,1,.5.82.82,0,0,0,.64-.36l.08-.1a1.59,1.59,0,0,1,.5-.11,1.94,1.94,0,0,0,.78-.24c.14.15.38.29.92.11a.73.73,0,0,0,.39-.66v0l.34-.05c.38,0,.91-.1,1.08-.68a3.1,3.1,0,0,0,0-.42,3,3,0,0,1,0-.4l.1-.1c.13-.12.33-.28.26-.55a.51.51,0,0,0-.28-.31,2.24,2.24,0,0,0-1.33,0l-.19,0a1,1,0,0,0-.26-.35l-.07-.06,0,0a1,1,0,0,0,.5-.41,1.5,1.5,0,0,0,.23-.66h.09l.17,0c.56-.15,1-.26,1-.64a.48.48,0,0,0,0-.22c.9-.45,1.84-2.4,2-3.15A2.53,2.53,0,0,0,40.34,37.68Z"></path><path d="M31.49,2.49A.91.91,0,0,0,32.32,2a.39.39,0,0,0-.18-.53,1.28,1.28,0,0,0-.24-.11l-.18-.08a.31.31,0,0,0-.1-.05l-.1,0a.58.58,0,0,0,0-.19h0a1,1,0,0,0-.94-1h0c-.95.07-1,.68-1,.86A2.13,2.13,0,0,0,31.49,2.49Z"></path><path d="M18.19,6.24a.86.86,0,0,0,.74-.6s0-.08.07-.12a.63.63,0,0,0,.43,0,.56.56,0,0,0,.2-.17.66.66,0,0,0,.26.08c.82,0,1-1.12,1-1.6a.26.26,0,0,0,0-.07,2.11,2.11,0,0,1,.3-.28,3.29,3.29,0,0,0,.55-.57.46.46,0,0,0,0-.36.7.7,0,0,1,0-.16c0-.19-.05-.64-.5-.73h-.11a1.33,1.33,0,0,0-.86.46,1.59,1.59,0,0,1-.13.13l-.05,0a.58.58,0,0,0-.32-.1.85.85,0,0,0-.62.36.47.47,0,0,0-.13.24.78.78,0,0,0-.4-.12c-.48,0-.68.54-.76.79a.93.93,0,0,0,0,.44.36.36,0,0,0-.11.13.48.48,0,0,0,0,.39.72.72,0,0,0,.11.19.56.56,0,0,0-.37.25.9.9,0,0,0,0,.91A.82.82,0,0,0,18.19,6.24Z"></path></svg>