<svg xmlns="http://www.w3.org/2000/svg" x="0px" y="0px" viewBox="0 0 100 100" style="enable-background:new 0 0 100 100;" xml:space="preserve"><g>	<g>		<path d="M41.9,21.4l-1,5.9c-0.2,1,0.2,2,1,2.6c0.5,0.3,1,0.5,1.5,0.5c0.4,0,0.8-0.1,1.2-0.3l5.3-2.8l5.3,2.8   c0.4,0.2,0.8,0.3,1.2,0.3h0c1.5,0,2.6-1.2,2.6-2.6c0-0.2,0-0.4-0.1-0.6l-1-5.8l4.3-4.2c0.7-0.7,1-1.7,0.7-2.7   c-0.3-1-1.1-1.7-2.1-1.8L55,11.9l-2.7-5.4C51.9,5.6,51,5,50,5c-1,0-1.9,0.6-2.4,1.5L45,11.9L39,12.7c-1,0.1-1.8,0.8-2.1,1.8   c-0.3,1-0.1,2,0.7,2.7L41.9,21.4z"></path>		<path d="M90.1,70c-3.6,3-8.2,4.8-13.2,4.8c-1.7,0-3.3-0.2-4.9-0.6c1,2.6,1.5,5.3,1.5,8.2v2.8c0,3.7-1.3,7.1-3.6,9.7h15.4   c5.3,0,9.7-4.3,9.7-9.7v-2.8C95,77.7,93.1,73.3,90.1,70z"></path>		<path d="M50,69.6c8.5,0,15.3-6.9,15.3-15.3c0-8.5-6.9-15.3-15.3-15.3c-8.5,0-15.3,6.9-15.3,15.3C34.7,62.7,41.5,69.6,50,69.6z"></path>		<path d="M76.8,69.6c8.5,0,15.3-6.9,15.3-15.3c0-8.5-6.9-15.3-15.3-15.3c-3.8,0-7.2,1.4-9.9,3.6c2.3,3.3,3.7,7.4,3.7,11.7   c0,4.4-1.4,8.4-3.7,11.7C69.6,68.2,73.1,69.6,76.8,69.6z"></path>		<path d="M23.2,69.6c3.8,0,7.2-1.4,9.9-3.6c-2.3-3.3-3.7-7.4-3.7-11.7s1.4-8.4,3.7-11.7c-2.7-2.3-6.1-3.6-9.9-3.6   c-8.5,0-15.3,6.9-15.3,15.3C7.8,62.7,14.7,69.6,23.2,69.6z"></path>		<path d="M50,74.9c-5,0-9.6-1.8-13.2-4.8c-3.1,3.3-4.9,7.6-4.9,12.4v2.8c0,5.3,4.4,9.7,9.7,9.7h16.9c5.3,0,9.7-4.3,9.7-9.7v-2.8   c0-4.8-1.9-9.2-4.9-12.4C59.6,73,55,74.9,50,74.9z"></path>		<path d="M26.6,82.5c0-2.9,0.5-5.7,1.5-8.2c-1.6,0.4-3.2,0.6-4.9,0.6c-5,0-9.6-1.8-13.2-4.8C6.9,73.3,5,77.7,5,82.5v2.8   c0,5.3,4.4,9.7,9.7,9.7h15.4c-2.2-2.6-3.6-6-3.6-9.7V82.5z"></path>	</g></g></svg>